<svg xmlns="http://www.w3.org/2000/svg" version="1.1" xmlns:xlink="http://www.w3.org/1999/xlink" xmlns:svgjs="http://svgjs.dev/svgjs" width="1000" height="1000" viewBox="0 0 1000 1000"><rect width="1000" height="1000" fill="#ffffff"></rect><g transform="matrix(0.7,0,0,0.7,264.19301880070594,318.87346963562766)"><svg viewBox="0 0 396 247" data-background-color="#0080ff" preserveAspectRatio="xMidYMid meet" height="623" width="1000" xmlns="http://www.w3.org/2000/svg" xmlns:xlink="http://www.w3.org/1999/xlink"><defs></defs><g id="tight-bounds" transform="matrix(1,0,0,1,0.2400000000000091,-0.09999999999999432)"><svg viewBox="0 0 395.52 247.2" height="247.2" width="395.52"><g><svg></svg></g><g><svg viewBox="0 0 395.52 247.2" height="247.2" width="395.52"><g transform="matrix(1,0,0,1,101.83605415422211,47.215199999999996)"><svg viewBox="0 0 191.84789169155576 152.7696" height="152.7696" width="191.84789169155576"><g><svg viewBox="0 0 191.84789169155576 152.7696" height="152.7696" width="191.84789169155576"><g><svg viewBox="0 0 244.43135999999998 194.64212384826328" height="152.7696" width="191.84789169155576"><g><svg viewBox="0 0 244.43135999999998 194.64212384826328" height="194.64212384826328" width="244.43135999999998"><g><svg viewBox="0 0 244.43135999999998 194.64212384826328" height="194.64212384826328" width="244.43135999999998"><g><svg viewBox="0 0 244.43135999999998 133.32619636363637" height="133.32619636363637" width="244.43135999999998"><g transform="matrix(1,0,0,1,0,0)"><svg width="244.43135999999998" viewBox="1.7999999523162842 -36 66 36" height="133.32619636363637" data-palette-color="#ffffff"><path d="M24.75-25.1L24.75-11.9 20.7-11.9 19.85-16.6 13-16.6 13-3.75 26.75-3.75 28.15-11.15 32.55-11.15 32.55 0 1.8 0 1.8-2.9 6.5-3.95 6.5-32.05 1.8-33.1 1.8-36 31.45-36 31.45-25.4 27.35-25.4 25.9-32.35 13-32.35 13-20.35 19.85-20.35 20.7-25.1 24.75-25.1ZM66.1-27.35L66.1-27.35Q66.1-25.45 65.22-23.8 64.35-22.15 62.85-21.05 61.35-19.95 59.4-19.7L59.4-19.7 59.4-19.5Q63.3-18.7 65.55-16.2 67.8-13.7 67.8-10.05L67.8-10.05Q67.8-7.25 66.32-4.88 64.85-2.5 62.6-1.35L62.6-1.35Q61.2-0.65 59.15-0.33 57.1 0 53.4 0L53.4 0 36.95 0 36.95-2.9 41.15-3.95 41.15-32.05 36.95-33.1 36.95-36 55.25-36Q60.5-36 63.35-33.45L63.35-33.45Q64.65-32.25 65.37-30.65 66.1-29.05 66.1-27.35ZM52.55-16.95L52.55-16.95 47.65-16.95 47.65-3.75 51.65-3.75Q53.95-3.75 55.35-4 56.75-4.25 57.7-4.8L57.7-4.8Q59.05-5.5 59.9-7.03 60.75-8.55 60.75-10.55L60.75-10.55Q60.75-12.3 60.1-13.5 59.45-14.7 58.45-15.5L58.45-15.5Q57.55-16.2 56.15-16.57 54.75-16.95 52.55-16.95ZM52.6-32.35L47.65-32.35 47.65-20.6 52.4-20.6Q55.9-20.6 57.55-22.35L57.55-22.35Q58.3-23.05 58.85-24.13 59.4-25.2 59.4-26.6L59.4-26.6Q59.4-28 58.85-29.1 58.3-30.2 57.55-30.85L57.55-30.85Q56.05-32.35 52.6-32.35L52.6-32.35Z" opacity="1" transform="matrix(1,0,0,1,0,0)" fill="#000000" class="undefined-text-0" data-fill-palette-color="primary" id="text-0"></path></svg></g></svg></g><g transform="matrix(1,0,0,1,0,164.8013114963782)"><svg viewBox="0 0 244.43135999999998 29.840812351885095" height="29.840812351885095" width="244.43135999999998"><g transform="matrix(1,0,0,1,0,0)"><svg width="244.43135999999998" viewBox="3 -33.5 278.4800109863281 34" height="29.840812351885095" data-palette-color="#ffffff"><path d="M29.5 0L3 0 3-0.8 7.05-2.8 7.05-30.2 3-32.2 3-33 28.1-33 28.1-24.4 27.3-24.4 24.05-30.25 12.3-30.25 12.3-18.4 20.6-18.4 23.15-22.6 23.95-22.6 23.95-11.55 23.15-11.55 20.6-15.65 12.3-15.65 12.3-2.75 25.4-2.75 28.7-9.35 29.5-9.35 29.5 0ZM45.25 0L34.45 0 34.45-0.8 37.6-2.45 50.45-33.25 53.2-33.25 65.9-2.6 69.25-0.8 69.25 0 56.05 0 56.05-0.8 60.45-2.55 56.75-11.55 44.7-11.55 41.05-2.5 45.25-0.8 45.25 0ZM50.75-26.35L45.85-14.3 55.65-14.3 50.75-26.35ZM84.05 0.5L84.05 0.5Q80.9 0.5 78.67-0.1 76.45-0.7 74.09-1.85L74.09-1.85 73.59-10.1 74.4-10.1 77.05-4.65Q78.8-3.2 80.5-2.55 82.2-1.9 83.9-1.9L83.9-1.9Q86.8-1.9 88.47-3.4 90.15-4.9 90.15-7.5L90.15-7.5Q90.15-9.55 89.22-10.78 88.3-12 86.47-12.98 84.65-13.95 82-15.25L82-15.25Q78.45-16.95 76.55-18.82 74.65-20.7 74.65-24.1L74.65-24.1Q74.65-25.9 75.52-27.58 76.4-29.25 77.9-30.58 79.4-31.9 81.25-32.7 83.09-33.5 85.09-33.5L85.09-33.5Q87.45-33.5 89.5-32.95 91.55-32.4 93.55-31.35L93.55-31.35 94.05-23.35 93.25-23.35 90.65-28.7Q89.05-29.95 87.75-30.5 86.45-31.05 84.8-31.05L84.8-31.05Q82.65-31.05 81.22-29.6 79.8-28.15 79.8-25.95L79.8-25.95Q79.8-23.5 81.32-22.1 82.84-20.7 86.25-19.1L86.25-19.1Q89.25-17.65 91.22-16.32 93.2-15 94.15-13.35 95.09-11.7 95.09-9.15L95.09-9.15Q95.09-6.8 94.09-5 93.09-3.2 91.45-1.98 89.8-0.75 87.87-0.13 85.95 0.5 84.05 0.5ZM123.24 0L109.04 0 109.04-0.8 113.54-2.8 113.54-15.4 102.49-30.45 99.34-32.2 99.34-33 112.24-33 112.24-32.2 108.59-30.4 108.59-30.2 117.44-18.15 125.44-30.15 125.44-30.35 121.74-32.2 121.74-33 132.54-33 132.54-32.2 129.29-30.55 118.74-15.45 118.74-2.8 123.24-0.8 123.24 0ZM151.74 0L137.14 0 137.14-0.8 141.19-2.8 141.19-30.2 137.14-32.2 137.14-33 150.59-33Q153.94-33 156.62-32.18 159.29-31.35 160.82-29.73 162.34-28.1 162.34-25.6L162.34-25.6Q162.34-23.05 160.59-20.93 158.84-18.8 155.54-17.9L155.54-17.9Q160.09-17.3 162.67-15.13 165.24-12.95 165.24-9.6L165.24-9.6Q165.24-6.85 163.49-4.67 161.74-2.5 158.69-1.25 155.64 0 151.74 0L151.74 0ZM149.14-30.25L149.14-30.25 146.44-30.25 146.44-18.35 149.39-18.35Q152.94-18.35 154.89-19.9 156.84-21.45 156.84-24.15L156.84-24.15Q156.84-30.25 149.14-30.25ZM150.99-15.7L150.99-15.7 146.44-15.7 146.44-2.75 151.34-2.75Q155.19-2.75 157.42-4.58 159.64-6.4 159.64-9.25L159.64-9.25Q159.64-12.6 157.39-14.15 155.14-15.7 150.99-15.7ZM179.89 0L169.09 0 169.09-0.8 172.24-2.45 185.09-33.25 187.84-33.25 200.54-2.6 203.89-0.8 203.89 0 190.69 0 190.69-0.8 195.09-2.55 191.39-11.55 179.34-11.55 175.69-2.5 179.89-0.8 179.89 0ZM185.39-26.35L180.49-14.3 190.29-14.3 185.39-26.35ZM220.89 0L208.19 0 208.19-0.8 212.24-2.8 212.24-30.1 208.24-32.2 208.24-33 216.09-33 235.24-9.45 235.24-30.25 230.09-32.2 230.09-33 242.74-33 242.74-32.2 238.74-30.25 238.74 0.25 236.59 0.25 215.74-25.35 215.74-2.75 220.89-0.8 220.89 0ZM261.88 0L248.53 0 248.53-0.8 252.58-2.8 252.58-30.2 248.53-32.2 248.53-33 261.88-33 261.88-32.2 257.83-30.2 257.83-2.8 261.88-0.8 261.88 0ZM273.33 0L257.83-16.85 271.63-30.5 268.08-32.2 268.08-33 278.88-33 278.88-32.2 275.73-30.95 262.93-18.4 278.33-2.15 281.48-0.8 281.48 0 273.33 0Z" opacity="1" transform="matrix(1,0,0,1,0,0)" fill="#000000" class="undefined-text-1" data-fill-palette-color="secondary" id="text-1"></path></svg></g></svg></g></svg></g></svg></g></svg></g></svg></g></svg></g><g><path d="M191.848 224.689A95.924 95.924 0 1 1 191.848 22.511L182.411 22.511A86.487 86.487 0 1 0 182.411 224.689L191.848 224.689" fill="#ffffff" stroke="transparent" data-fill-palette-color="tertiary"></path></g></svg></g></svg><rect width="395.52" height="247.2" fill="none" stroke="none" visibility="hidden"></rect></g></svg></g></svg>